#!OML:ASF F:\VICON\USERDATA\INSTALL\rory3\rory3.ASF
:FULLY-SPECIFIED
:DEGREES
1023
root 2.6103 17.6052 -11.0536 -4.72565 -17.9872 -0.531586
lowerback 14.3909 0.541718 0.0146006
upperback 1.53329 0.769424 0.930156
thorax -6.46035 0.380881 0.825258
lowerneck -20.8943 -8.35159 -12.9341
upperneck 21.2231 -11.254 13.8404
head 12.0353 -4.53048 5.39645
rclavicle 3.74585e-014 -7.95139e-016
rhumerus -36.162 -18.08 -72.7294
rradius 21.9872
rwrist 8.87723
rhand -17.3736 6.22982
rfingers 7.12502
rthumb 8.87482 -23.5635
lclavicle 3.74585e-014 -7.95139e-016
lhumerus -33.7405 1.86643 77.0142
lradius 37.5484
lwrist 5.0414
lhand -19.2875 31.0704
lfingers 7.12502
lthumb 7.02764 60.9337
rfemur -6.7828 -1.53583 24.4567
rtibia 34.0767
rfoot -19.728 1.39669
rtoes 5.81213
lfemur -15.4497 -0.220903 -11.7185
ltibia 38.4335
lfoot -10.3222 -3.67806
ltoes -12.5726
1024
root 2.55897 17.6055 -11.0293 -4.6657 -19.0689 -0.707278
lowerback 14.3054 0.530091 0.341783
upperback 1.49988 0.812168 1.03878
thorax -6.4463 0.394312 0.747144
lowerneck -20.9247 -8.24395 -12.991
upperneck 21.4524 -11.0986 13.8076
head 12.1052 -4.46688 5.43129
rclavicle 5.75979e-014 -3.37934e-015
rhumerus -36.0829 -17.9763 -72.5799
rradius 21.9088
rwrist 9.22674
rhand -17.1563 6.23908
rfingers 7.12502
rthumb 9.0845 -23.5453
lclavicle 5.75979e-014 -3.37934e-015
lhumerus -33.6878 1.36902 77.4515
lradius 38.068
lwrist 4.97267
lhand -18.6245 30.8275
lfingers 7.12502
lthumb 7.66757 60.6685
rfemur -6.52789 -0.97901 24.8703
rtibia 33.7834
rfoot -19.5407 1.81598
rtoes 6.4622
lfemur -15.7237 -0.325821 -11.9487
ltibia 38.682
lfoot -10.4212 -3.3357
ltoes -12.4568
1025
root 2.50757 17.6065 -11.0073 -4.60473 -20.2579 -0.792637
lowerback 14.2504 0.557895 0.586928
upperback 1.43347 0.891674 1.1027
thorax -6.48477 0.427238 0.660764
lowerneck -20.8948 -8.11258 -13.0828
upperneck 21.7163 -10.9287 13.8409
head 12.1817 -4.395 5.50359
rclavicle 5.40694e-014 -9.54166e-015
rhumerus -35.9874 -17.8111 -72.4907
rradius 21.7954
rwrist 9.46373
rhand -16.8135 6.29249
rfingers 7.12502
rthumb 9.4153 -23.4772
lclavicle 5.40694e-014 -9.54166e-015
lhumerus -33.6916 0.941891 77.808
lradius 38.6293
lwrist 4.92555
lhand -17.8592 30.4879
lfingers 7.12502
lthumb 8.40618 60.3007
rfemur -6.33442 -0.329844 25.2141
rtibia 33.4934
rfoot -19.3973 2.14492
rtoes 6.59944
lfemur -16.0078 -0.420431 -12.2641
ltibia 38.8977
lfoot -10.565 -3.02351
ltoes -12.3726
1026
root 2.45542 17.6067 -10.9862 -4.57288 -21.4519 -0.923608
lowerback 14.2994 0.578237 0.805639
upperback 1.35686 0.961104 1.20044
thorax -6.59235 0.455924 0.626326
lowerneck -20.8024 -7.97401 -13.0575
upperneck 21.8857 -10.7404 13.7293
head 12.1878 -4.32535 5.49943
rclavicle -6.37602e-014 8.34896e-015
rhumerus -35.9133 -17.4649 -72.4753
rradius 21.7562
rwrist 9.52015
rhand -16.5972 6.49847
rfingers 7.12502
rthumb 9.62402 -23.2617
lclavicle -6.37602e-014 8.34896e-015
lhumerus -33.6519 0.54284 78.1595
lradius 39.0257
lwrist 5.03829
lhand -16.9396 31.066
lfingers 7.12502
lthumb 9.29363 60.8411
rfemur -6.08341 0.382641 25.6133
rtibia 33.2255
rfoot -19.2285 2.46423
rtoes 7.19069
lfemur -16.2289 -0.495304 -12.5138
ltibia 39.0557
lfoot -10.7388 -2.93744
ltoes -12.438
1027
root 2.40325 17.6113 -10.9605 -4.47797 -22.6028 -0.992527
lowerback 14.191 0.58775 0.956779
upperback 1.30001 1.00222 1.28654
thorax -6.59208 0.472784 0.624705
lowerneck -20.8121 -7.81793 -12.951
upperneck 22.0377 -10.5255 13.5738
head 12.195 -4.23788 5.46677
rclavicle -2.18415e-014 3.18055e-015
rhumerus -35.8129 -16.9847 -72.5441
rradius 21.8516
rwrist 9.50982
rhand -16.5261 6.34121
rfingers 7.12502
rthumb 9.69264 -23.4158
lclavicle -2.18415e-014 3.18055e-015
lhumerus -33.539 0.180963 78.4491
lradius 39.4328
lwrist 4.86457
lhand -16.1799 31.9791
lfingers 7.12502
lthumb 10.0266 61.7202
rfemur -5.89183 0.84995 25.8735
rtibia 32.9657
rfoot -19.0549 3.06325
rtoes 8.07318
lfemur -16.5447 -0.56922 -12.8444
ltibia 39.173
lfoot -10.9042 -2.82898
ltoes -14.5495
1028
root 2.35033 17.6156 -10.9319 -4.45314 -23.6769 -0.963232
lowerback 14.0823 0.558127 1.03104
upperback 1.27219 0.977434 1.3574
thorax -6.56123 0.459467 0.66341
lowerneck -20.8338 -7.64765 -12.9614
upperneck 22.1836 -10.2702 13.4951
head 12.2091 -4.13324 5.49188
rclavicle 3.56322e-014 -1.07344e-014
rhumerus -35.5843 -16.5941 -72.5686
rradius 21.8106
rwrist 9.68942
rhand -16.4281 6.27517
rfingers 7.12502
rthumb 9.78717 -23.4774
lclavicle 3.56322e-014 -1.07344e-014
lhumerus -33.5083 0.122519 78.6621
lradius 39.9269
lwrist 4.10962
lhand -16.2621 31.6172
lfingers 7.12502
lthumb 9.94728 61.3622
rfemur -5.70527 1.11716 25.9924
rtibia 32.8188
rfoot -19.0113 3.76678
rtoes 8.83829
lfemur -16.8017 -0.713984 -13.277
ltibia 39.1528
lfoot -11.0403 -2.67373
ltoes -17.3978
1029
root 2.29505 17.6148 -10.9067 -4.45759 -24.7985 -1.08359
lowerback 14.1189 0.564483 1.18451
upperback 1.27643 1.01655 1.46253
thorax -6.57666 0.475106 0.680084
lowerneck -20.9767 -7.5036 -12.9637
upperneck 22.3459 -10.0491 13.441
head 12.2606 -4.03541 5.51783
rclavicle -3.29983e-014 1.90833e-014
rhumerus -35.3061 -16.4065 -72.5552
rradius 21.7659
rwrist 9.88955
rhand -16.2748 6.46408
rfingers 7.12502
rthumb 9.935 -23.2815
lclavicle -3.29983e-014 1.90833e-014
lhumerus -33.3728 -0.0142215 78.8994
lradius 40.1943
lwrist 3.714
lhand -17.3249 30.1047
lfingers 7.12502
lthumb 8.92182 59.896
rfemur -5.41681 1.60389 26.3245
rtibia 32.6541
rfoot -18.9416 4.24216
rtoes 8.9987
lfemur -16.9851 -0.943878 -13.5198
ltibia 39.1022
lfoot -11.1319 -2.56082
ltoes -18.2271
1030
root 2.25258 17.6206 -10.8828 -4.46262 -25.6535 -0.313272
lowerback 13.8729 0.562694 0.723814
upperback 1.15642 0.927151 1.25222
thorax -6.57074 0.44221 0.736986
lowerneck -21.1544 -7.39469 -12.8492
upperneck 22.5418 -9.9148 13.3708
head 12.3387 -3.96674 5.50166
rclavicle 2.10463e-014 7.95139e-016
rhumerus -35.1304 -16.0923 -72.7619
rradius 21.9255
rwrist 9.80906
rhand -16.3626 6.44894
rfingers 7.12502
rthumb 9.85039 -23.3006
lclavicle 2.10463e-014 7.95139e-016
lhumerus -33.1459 -0.486675 79.1502
lradius 40.269
lwrist 4.28664
lhand -18.8142 28.5573
lfingers 7.12502
lthumb 7.48452 58.4049
rfemur -5.57721 1.62464 25.5953
rtibia 32.5191
rfoot -18.9209 5.07412
rtoes 9.2521
lfemur -17.5715 -1.58825 -14.7542
ltibia 38.9886
lfoot -11.0251 -2.35481
ltoes -16.9577
1031
root 2.19243 17.6198 -10.8551 -4.48252 -26.6214 -0.610494
lowerback 13.9526 0.526987 1.05052
upperback 1.1924 0.934834 1.32719
thorax -6.57294 0.437129 0.629608
lowerneck -21.2113 -7.28921 -12.6326
upperneck 22.6616 -9.80265 13.2194
head 12.3556 -3.91371 5.42955
rclavicle 2.60905e-015 -3.97569e-015
rhumerus -34.9871 -15.8715 -72.9661
rradius 22.1257
rwrist 9.75698
rhand -16.2767 6.60874
rfingers 7.12502
rthumb 9.93318 -23.1369
lclavicle 2.60905e-015 -3.97569e-015
lhumerus -32.8664 -1.00636 79.3455
lradius 40.3662
lwrist 4.92329
lhand -18.8493 28.7705
lfingers 7.12502
lthumb 7.45063 58.6193
rfemur -5.19824 1.98608 26.1011
rtibia 32.3875
rfoot -18.9751 5.57282
rtoes 10.2589
lfemur -17.691 -1.88548 -14.8247
ltibia 38.888
lfoot -11.0326 -2.31036
ltoes -16.1704
1032
root 2.12963 17.6145 -10.8291 -4.46049 -27.6078 -1.0262
lowerback 14.044 0.494833 1.42231
upperback 1.23459 0.959031 1.46762
thorax -6.57555 0.439635 0.562819
lowerneck -21.2031 -7.18025 -12.4292
upperneck 22.6921 -9.66728 13.0345
head 12.32 -3.85832 5.34795
rclavicle -1.26477e-014 7.55382e-015
rhumerus -34.8332 -15.6876 -73.0952
rradius 22.3753
rwrist 9.66515
rhand -16.1276 7.1699
rfingers 7.12502
rthumb 10.0771 -22.5688
lclavicle -1.26477e-014 7.55382e-015
lhumerus -32.6449 -1.35949 79.4897
lradius 40.5806
lwrist 4.84005
lhand -18.5221 29.1266
lfingers 7.12502
lthumb 7.76641 58.9639
rfemur -4.8059 2.30916 26.7208
rtibia 32.2925
rfoot -18.9782 6.1467
rtoes 11.3387
lfemur -17.817 -1.9583 -14.7592
ltibia 38.7357
lfoot -10.9454 -2.41802
ltoes -14.8209
